# xmcd CD database file
# Copyright (C) 1997 Ti Kan
#
# Track frame offsets:
#  183
#  12298
#  24865
#  39413
#  54940
#  68390
#  79768
#  91963
#  104948
#  122765
#  135318
#  150495
#  160090
#  172470
#  182825
#  192878
#
# Disc length: 2750 seconds
#
# Revision: 1
# Processed by: cddbd v1.4b41PL1 Copyright (c) Steve Scherf et al.
# Submitted via: CDWizzard Release:4.32
#
DISCID=c50abc10
DTITLE=John Lee Hooker - The Word Of John Lee Hooker
DYEAR=1900
DGENRE=
TTITLE0=I'm In The Mood
TTITLE1=Hobo Blues
TTITLE2=Sugar Mama
TTITLE3=Hey Baby
TTITLE4=Ground Hog Blues
TTITLE5=Boom Boom
TTITLE6=Crawlin' King Snake
TTITLE7=I'm So Exicted
TTITLE8=Wednesday Evening Blues
TTITLE9=Baby Lee
TTITLE10=Tupelo
TTITLE11=Onions
TTITLE12=Drug Store Woman
TTITLE13=Maudie
TTITLE14=Dusty Road
TTITLE15=Trouble Blues
EXTD=
EXTT0=John Lee Hooker
EXTT1=
EXTT2=
EXTT3=
EXTT4=
EXTT5=
EXTT6=
EXTT7=
EXTT8=
EXTT9=
EXTT10=
EXTT11=
EXTT12=
EXTT13=
EXTT14=
EXTT15=
PLAYORDER=
